<mxfile host="app.diagrams.net" agent="Mozilla/5.0 (Windows NT 10.0; Win64; x64) AppleWebKit/537.36 (KHTML, like Gecko) Chrome/135.0.0.0 Safari/537.36" version="26.2.13">
  <diagram name="Page-1" id="apUnp6kEZ9bHuEHxvHtZ">
    <mxGraphModel dx="1428" dy="751" grid="1" gridSize="10" guides="1" tooltips="1" connect="1" arrows="1" fold="1" page="1" pageScale="1" pageWidth="850" pageHeight="1100" math="0" shadow="0">
      <root>
        <mxCell id="0" />
        <mxCell id="1" parent="0" />
        <mxCell id="BjRJzPvypT3539zgOQNm-1" value="masyarakat datang ke bpn untuk mengajukan pengaduan terhadap masalah" style="rounded=1;whiteSpace=wrap;html=1;" vertex="1" parent="1">
          <mxGeometry x="350" y="130" width="130" height="70" as="geometry" />
        </mxCell>
        <mxCell id="BjRJzPvypT3539zgOQNm-2" value="kemudian di bpn jadwal untuk pengaduan padat" style="rounded=1;whiteSpace=wrap;html=1;" vertex="1" parent="1">
          <mxGeometry x="350" y="270" width="130" height="70" as="geometry" />
        </mxCell>
        <mxCell id="BjRJzPvypT3539zgOQNm-3" value="jadi antrian untuk mengajukan permasalahan menjadi tidak kondusif" style="rounded=1;whiteSpace=wrap;html=1;" vertex="1" parent="1">
          <mxGeometry x="350" y="420" width="130" height="70" as="geometry" />
        </mxCell>
        <mxCell id="BjRJzPvypT3539zgOQNm-5" value="" style="endArrow=classic;html=1;rounded=0;exitX=0.5;exitY=1;exitDx=0;exitDy=0;" edge="1" parent="1" source="BjRJzPvypT3539zgOQNm-1" target="BjRJzPvypT3539zgOQNm-2">
          <mxGeometry width="50" height="50" relative="1" as="geometry">
            <mxPoint x="230" y="390" as="sourcePoint" />
            <mxPoint x="280" y="340" as="targetPoint" />
          </mxGeometry>
        </mxCell>
        <mxCell id="BjRJzPvypT3539zgOQNm-12" value="" style="endArrow=classic;html=1;rounded=0;entryX=0.5;entryY=0;entryDx=0;entryDy=0;exitX=0.5;exitY=1;exitDx=0;exitDy=0;" edge="1" parent="1" source="BjRJzPvypT3539zgOQNm-2" target="BjRJzPvypT3539zgOQNm-3">
          <mxGeometry width="50" height="50" relative="1" as="geometry">
            <mxPoint x="380" y="390" as="sourcePoint" />
            <mxPoint x="430" y="340" as="targetPoint" />
          </mxGeometry>
        </mxCell>
      </root>
    </mxGraphModel>
  </diagram>
</mxfile>
